<svg xmlns="http://www.w3.org/2000/svg" xmlns:xlink="http://www.w3.org/1999/xlink" viewBox="0 0 280 250" preserveAspectRatio="xMidYMid" style="display: block; shape-rendering: auto; background: transparent;" width="280" height="250"><style type="text/css">
  .ld-text text {
    text-anchor: middle;
    dominant-baseline: middle;
    font-size: 44px;
    opacity: 0;
    user-select: none;
    pointer-events: none;
  }
</style>
<g style="transform-origin:140px 125px;transform:scale(1)" class="ld-text">
<g transform="translate(140,125)">
  <g transform="scale(0.5500) translate(0,0)"><g class="path" style="opacity: 1; transform-origin: -187.52px -4.5px; transform: matrix3d(0.91, 0, 0, 0, 0, 0.91, 0, 0, 0, 0, 0.91, 0, 0, 0, 0, 1); animation: 1s linear -0.594s infinite normal forwards running animate-ffg7f5h9f08; transform-box: view-box;"><path d="M10.48 36.20L13.04 49.16Q17.68 52.36 26.08 52.36L26.08 52.36Q31.76 52.36 34.60 49.08Q37.44 45.80 37.44 41.24L37.44 41.24Q37.44 38.84 37.04 37.20Q36.64 35.56 35.32 33.48Q34 31.40 31.12 29.32Q28.24 27.24 23.60 24.92L23.60 24.92Q18.16 22.20 14.80 19.80Q11.44 17.40 9.76 14.84Q8.08 12.28 7.52 9.96Q6.96 7.64 6.96 4.20L6.96 4.20Q6.96-2.84 12.60-6.72Q18.24-10.60 25.92-10.60L25.92-10.60Q35.44-10.60 44.32-5.80L44.32-5.80L44.32 9.56Q41.60 10.04 39.76 9.56L39.76 9.56L37.20-4.28Q32.08-7.08 25.76-7.08L25.76-7.08Q21.52-7.08 18.60-4.56Q15.68-2.04 15.68 2.52L15.68 2.52Q15.68 5.08 16 6.52Q16.32 7.96 17.60 9.92Q18.88 11.88 21.84 13.84Q24.80 15.80 29.76 18.20L29.76 18.20Q46.88 26.52 46.88 38.04L46.88 38.04Q46.88 46.20 40.64 51.24Q34.40 56.28 24.32 56.28L24.32 56.28Q14.32 56.28 5.92 51.56L5.92 51.56L5.92 36.20Q8.64 35.72 10.48 36.20L10.48 36.20" style="fill: rgb(72, 19, 90);" transform="translate(-213.920,-27.340)"></path></g><g class="path" style="opacity: 1; transform-origin: -137.6px 16.1px; transform: matrix3d(0.91, 0, 0, 0, 0, 0.91, 0, 0, 0, 0, 0.91, 0, 0, 0, 0, 1); animation: 1s linear -0.528s infinite normal forwards running animate-ffg7f5h9f08; transform-box: view-box;"><path d="M79.28 51.96L79.28 51.96Q84.56 51.96 87.64 46.84Q90.72 41.72 90.72 31.40L90.72 31.40Q90.72 23.48 87.80 19.32Q84.88 15.16 80.08 15.16L80.08 15.16Q73.04 15.16 67.92 21.96L67.92 21.96L67.92 46.84Q72.40 51.96 79.28 51.96 zM60.32 62.28L60.32 23.40Q60.32 18.04 60.08 15.88L60.08 15.88L53.76 15.08Q53.52 13.80 53.76 12.04L53.76 12.04Q59.36 11.64 67.52 10.36L67.52 10.36Q68.24 11.08 68.32 11.96L68.32 11.96Q67.92 14.76 67.92 17.88L67.92 17.88Q74.40 10.36 82.80 10.36L82.80 10.36Q89.84 10.36 94.52 16.20Q99.20 22.04 99.20 31.64L99.20 31.64Q99.20 42.76 93.08 49.52Q86.96 56.28 78.64 56.28L78.64 56.28Q72.80 56.28 67.92 52.52L67.92 52.52L67.92 72.12L76 73.32Q76.32 74.60 76 76.52L76 76.52Q70.96 76.28 64.88 76.28L64.88 76.28Q60.40 76.28 53.68 76.44L53.68 76.44Q53.20 74.84 53.68 73.32L53.68 73.32L60 72.44Q60.32 68.04 60.32 62.28L60.32 62.28" style="fill: rgb(72, 19, 90);" transform="translate(-213.920,-27.340)"></path></g><g class="path" style="opacity: 1; transform-origin: -90.12px 5.98px; transform: matrix3d(0.91, 0, 0, 0, 0, 0.91, 0, 0, 0, 0, 0.91, 0, 0, 0, 0, 1); animation: 1s linear -0.462s infinite normal forwards running animate-ffg7f5h9f08; transform-box: view-box;"><path d="M139.60 32.12L139.60 32.12L114.48 32.12Q113.76 52.52 126.72 52.52L126.72 52.52Q132.24 52.52 138 47.64L138 47.64Q139.20 48.36 139.84 50.12L139.84 50.12Q134.32 56.28 125.84 56.28L125.84 56.28Q106.32 56.28 106.32 33.32L106.32 33.32Q106.32 22.44 112.08 16.40Q117.84 10.36 125.52 10.36L125.52 10.36Q133.92 10.36 137.60 16.20Q141.28 22.04 141.28 31.40L141.28 31.40Q140.48 32.04 139.60 32.12 zM125.36 13.56L125.36 13.56Q121.20 13.56 118.28 17.88Q115.36 22.20 114.72 28.92L114.72 28.92L124.64 28.92Q130.56 28.92 133.12 28.20L133.12 28.20Q133.12 21.64 131.12 17.60Q129.12 13.56 125.36 13.56" style="fill: rgb(72, 19, 90);" transform="translate(-213.920,-27.340)"></path></g><g class="path" style="opacity: 1; transform-origin: -43.16px 5.34px; transform: matrix3d(0.91, 0, 0, 0, 0, 0.91, 0, 0, 0, 0, 0.91, 0, 0, 0, 0, 1); animation: 1s linear -0.396s infinite normal forwards running animate-ffg7f5h9f08; transform-box: view-box;"><path d="M180.40 40.76L180.40 26.12Q180.40 19.96 178.76 17.48Q177.12 15 173.28 15L173.28 15Q167.36 15 161.36 23.88L161.36 23.88L161.36 50.60L167.84 51.80Q168.16 53.08 167.84 55L167.84 55Q162.80 54.76 157.52 54.76L157.52 54.76Q153.84 54.76 147.12 54.92L147.12 54.92Q146.64 53.40 147.12 51.80L147.12 51.80L153.44 50.92Q153.76 46.52 153.76 40.76L153.76 40.76L153.76 18.84Q153.76 17.24 153.52 15.88L153.52 15.88L147.20 15.08Q146.88 13.88 147.20 12.04L147.20 12.04Q152.72 11.64 160.96 10.36L160.96 10.36Q161.68 11.16 161.76 11.96L161.76 11.96Q161.36 14.04 161.36 19.08L161.36 19.08Q167.68 10.36 175.60 10.36L175.60 10.36Q188 10.36 188 22.12L188 22.12L188 50.60L194.48 51.80Q194.80 53.08 194.48 55L194.48 55Q189.44 54.76 184.16 54.76L184.16 54.76Q180.48 54.76 173.76 54.92L173.76 54.92Q173.28 53.40 173.76 51.80L173.76 51.80L180.08 50.92Q180.40 46.52 180.40 40.76L180.40 40.76" style="fill: rgb(72, 19, 90);" transform="translate(-213.920,-27.340)"></path></g><g class="path" style="opacity: 1; transform-origin: 7.9px -4.46px; transform: matrix3d(0.91, 0, 0, 0, 0, 0.91, 0, 0, 0, 0, 0.91, 0, 0, 0, 0, 1); animation: 1s linear -0.33s infinite normal forwards running animate-ffg7f5h9f08; transform-box: view-box;"><path d="M237.76 3.96L237.76 43.32Q237.76 48.68 238 50.84L238 50.84L244.32 51.64Q244.56 52.92 244.32 54.68L244.32 54.68Q238.48 54.92 232.16 55.80L232.16 55.80Q231.60 55.24 231.36 54.28L231.36 54.28L230.96 49.16Q228.16 52.44 224 54.40Q219.84 56.36 215.28 56.36L215.28 56.36Q208.32 56.36 203.76 50.56Q199.20 44.76 199.20 35.08L199.20 35.08Q199.20 23.88 205.16 17.12Q211.12 10.36 219.44 10.36L219.44 10.36Q226 10.36 230.16 13.48L230.16 13.48L230.16 2.76Q230.16-2.52 229.92-5.08L229.92-5.08L223.60-5.88Q223.28-7.08 223.60-8.92L223.60-8.92Q229.12-9.32 237.36-10.60L237.36-10.60Q238.08-9.80 238.16-9L238.16-9Q237.76-6.92 237.76 3.96L237.76 3.96 zM218.80 14.68L218.80 14.68Q213.60 14.68 210.48 20.16Q207.36 25.64 207.36 35.32L207.36 35.32Q207.36 43.24 210.28 47.40Q213.20 51.56 218 51.56L218 51.56Q220.88 51.56 224.32 49.76Q227.76 47.96 230.16 44.76L230.16 44.76L230.16 19.16Q226.24 14.68 218.80 14.68" style="fill: rgb(72, 19, 90);" transform="translate(-213.920,-27.340)"></path></g><g class="path" style="opacity: 1; transform-origin: 75.36px -3.38px; transform: matrix3d(0.91, 0, 0, 0, 0, 0.91, 0, 0, 0, 0, 0.91, 0, 0, 0, 0, 1); animation: 1s linear -0.264s infinite normal forwards running animate-ffg7f5h9f08; transform-box: view-box;"><path d="M308.72 43L308.72 43L308.88 43Q309.68 39.72 312.72 29.72L312.72 29.72L323.84-5.48L317.36-6.28L317.36-9.24Q321.76-8.92 325.84-8.92L325.84-8.92Q329.36-8.92 334.48-9.16L334.48-9.16L334.48-6.28L329.20-5.32Q327.92-3.40 326 1.80L326 1.80L307.84 57.08L305.76 57.08L290.40 12.28L273.60 57.16L271.44 57.08L250.72-5.48L244.24-6.28Q243.92-7.48 244.24-9.24L244.24-9.24Q248.64-8.92 255.68-8.92L255.68-8.92Q262.16-8.92 267.28-9.16L267.28-9.16Q267.76-7.72 267.28-6.28L267.28-6.28L260.64-5.32L271.20 30.12Q273.20 37.32 274.64 43.64L274.64 43.64L274.80 43.64Q276.40 38.36 279.44 30.12L279.44 30.12L288.24 5.80L284.40-5.48L277.92-6.28Q277.60-7.48 277.92-9.24L277.92-9.24Q282.32-8.92 289.04-8.92L289.04-8.92Q295.12-8.92 300.32-9.16L300.32-9.16Q300.80-7.72 300.32-6.28L300.32-6.28L293.68-5.32L305.04 29.48Q307.68 38.12 308.72 43" style="fill: rgb(72, 19, 90);" transform="translate(-213.920,-27.340)"></path></g><g class="path" style="opacity: 1; transform-origin: 132.4px 5.34px; transform: matrix3d(0.91, 0, 0, 0, 0, 0.91, 0, 0, 0, 0, 0.91, 0, 0, 0, 0, 1); animation: 1s linear -0.198s infinite normal forwards running animate-ffg7f5h9f08; transform-box: view-box;"><path d="M350.24 24.92L350.24 24.92L350.24 50.60L356.72 51.80Q356.80 52.20 356.84 52.52Q356.88 52.84 356.88 53.24L356.88 53.24Q356.88 53.64 356.84 54.08Q356.80 54.52 356.72 55L356.72 55Q351.68 54.76 346.40 54.76L346.40 54.76Q344.56 54.76 341.96 54.80Q339.36 54.84 336 54.92L336 54.92Q335.76 54.20 335.76 53.40L335.76 53.40Q335.76 52.68 336 51.80L336 51.80L342.32 50.92Q342.48 48.68 342.56 46.16Q342.64 43.64 342.64 40.76L342.64 40.76L342.64 23.72Q342.64 18.44 342.40 15.88L342.40 15.88L336.08 15.08Q335.92 14.68 335.92 13.72L335.92 13.72Q335.92 13.32 335.92 12.92Q335.92 12.52 336.08 12.04L336.08 12.04Q341.52 11.72 349.84 10.36L349.84 10.36Q350.56 11.16 350.64 11.96L350.64 11.96Q350.24 14.20 350.24 24.92" style="fill: rgb(72, 19, 90);" transform="translate(-213.920,-27.340)"></path></g><g class="path" style="opacity: 1; transform-origin: 130.4px -32.38px; transform: matrix3d(0.91, 0, 0, 0, 0, 0.91, 0, 0, 0, 0, 0.91, 0, 0, 0, 0, 1); animation: 1s linear -0.132s infinite normal forwards running animate-ffg7f5h9f08; transform-box: view-box;"><path d="M338.56-3.64L338.56-3.64Q338.40-4.04 338.40-4.48Q338.40-4.92 338.40-5.32L338.40-5.32Q338.40-7.48 340.20-8.80Q342-10.12 344.64-10.12L344.64-10.12Q347.12-10.12 348.68-8.64Q350.24-7.16 350.24-4.60L350.24-4.60Q350.24-2.52 348.44-1.24Q346.64 0.04 343.84 0.04L343.84 0.04Q341.92 0.04 340.44-0.92Q338.96-1.88 338.56-3.64" style="fill: rgb(72, 19, 90);" transform="translate(-213.920,-27.340)"></path></g><g class="path" style="opacity: 1; transform-origin: 163px 5.98px; transform: matrix3d(0.91, 0, 0, 0, 0, 0.91, 0, 0, 0, 0, 0.91, 0, 0, 0, 0, 1); animation: 1s linear -0.066s infinite normal forwards running animate-ffg7f5h9f08; transform-box: view-box;"><path d="M376.16 52.76L376.16 52.76Q380.48 52.76 382.56 50.76Q384.64 48.76 384.64 46.12L384.64 46.12Q384.64 44.60 384.16 43.32Q383.68 42.04 382.60 40.84Q381.52 39.64 379.76 38.48Q378 37.32 375.36 35.96L375.36 35.96Q372.08 34.28 369.72 32.76Q367.36 31.24 365.84 29.56Q364.32 27.88 363.56 25.96Q362.80 24.04 362.80 21.64L362.80 21.64Q362.80 18.76 363.84 16.64Q364.88 14.52 366.76 13.12Q368.64 11.72 371.20 11.04Q373.76 10.36 376.88 10.36L376.88 10.36Q383.12 10.36 389.04 13.40L389.04 13.40L389.04 23.64L385.28 23.64L383.52 15Q380 13.32 376.08 13.32L376.08 13.32Q369.52 13.32 369.52 18.68L369.52 18.68Q369.52 21.56 371.68 23.96Q373.84 26.36 378.64 28.76L378.64 28.76Q381.92 30.44 384.40 31.96Q386.88 33.48 388.52 35.16Q390.16 36.84 391 38.80Q391.84 40.76 391.84 43.24L391.84 43.24Q391.84 46.04 390.64 48.44Q389.44 50.84 387.28 52.56Q385.12 54.28 382.08 55.28Q379.04 56.28 375.36 56.28L375.36 56.28Q368.24 56.28 362 53.24L362 53.24L362 43L365.76 43L367.52 50.92Q371.60 52.76 376.16 52.76" style="fill: rgb(72, 19, 90);" transform="translate(-213.920,-27.340)"></path></g><g class="path" style="opacity: 1; transform-origin: 202.36px 5.98px; transform: matrix3d(0.91, 0, 0, 0, 0, 0.91, 0, 0, 0, 0, 0.91, 0, 0, 0, 0, 1); animation: 1s linear 0s infinite normal forwards running animate-ffg7f5h9f08; transform-box: view-box;"><path d="M432.08 32.12L432.08 32.12L406.96 32.12Q406.24 52.52 419.20 52.52L419.20 52.52Q424.72 52.52 430.48 47.64L430.48 47.64Q431.68 48.36 432.32 50.12L432.32 50.12Q426.80 56.28 418.32 56.28L418.32 56.28Q398.80 56.28 398.80 33.32L398.80 33.32Q398.80 22.44 404.56 16.40Q410.32 10.36 418 10.36L418 10.36Q426.40 10.36 430.08 16.20Q433.76 22.04 433.76 31.40L433.76 31.40Q432.96 32.04 432.08 32.12 zM417.84 13.56L417.84 13.56Q413.68 13.56 410.76 17.88Q407.84 22.20 407.20 28.92L407.20 28.92L417.12 28.92Q423.04 28.92 425.60 28.20L425.60 28.20Q425.60 21.64 423.60 17.60Q421.60 13.56 417.84 13.56" style="fill: rgb(72, 19, 90);" transform="translate(-213.920,-27.340)"></path></g></g><text dy="0.35em" fill="#48135a" font-family="Adamina" font-size="44">SpendWise</text>
</g>
</g><style type="text/css">@keyframes animate-ffg7f5h9f08 { 0.00% {transform: translate(0.00px,0.00px) rotate(0.00deg) scale(0.91, 0.91) skew(0deg, 0.00deg) ;opacity: 1.00;}4.00% {transform: translate(0.00px,0.00px) rotate(0.00deg) scale(0.91, 0.91) ;}8.00% {animation-timing-function: cubic-bezier(0.69,0.60,0.35,0.27);transform: translate(0.00px,0.00px) rotate(0.00deg) scale(0.91, 0.91) ;}14.00% {transform: translate(0.00px,0.00px) rotate(0.00deg) scale(0.93, 0.93) ;}18.00% {transform: translate(0.00px,0.00px) rotate(0.00deg) scale(0.94, 0.94) ;}22.00% {animation-timing-function: cubic-bezier(0.67,0.66,0.34,0.33);transform: translate(0.00px,0.00px) rotate(0.00deg) scale(0.96, 0.96) ;}26.00% {transform: translate(0.00px,0.00px) rotate(0.00deg) scale(0.97, 0.97) ;}30.00% {transform: translate(0.00px,0.00px) rotate(0.00deg) scale(0.99, 0.99) ;}34.00% {animation-timing-function: cubic-bezier(0.65,0.71,0.32,0.38);transform: translate(0.00px,0.00px) rotate(0.00deg) scale(1.01, 1.01) ;}40.00% {animation-timing-function: cubic-bezier(0.64,0.74,0.31,0.41);transform: translate(0.00px,0.00px) rotate(0.00deg) scale(1.02, 1.02) ;}46.00% {animation-timing-function: cubic-bezier(0.60,0.91,0.23,0.63);transform: translate(0.00px,0.00px) rotate(0.00deg) scale(1.03, 1.03) ;}50.00% {transform: translate(0.00px,0.00px) rotate(0.00deg) scale(1.03, 1.03) ;}54.00% {transform: translate(0.00px,0.00px) rotate(0.00deg) scale(1.03, 1.03) ;}58.00% {animation-timing-function: cubic-bezier(0.69,0.60,0.35,0.27);transform: translate(0.00px,0.00px) rotate(0.00deg) scale(1.03, 1.03) ;}64.00% {transform: translate(0.00px,0.00px) rotate(0.00deg) scale(1.01, 1.01) ;}68.00% {transform: translate(0.00px,0.00px) rotate(0.00deg) scale(1.00, 1.00) ;}72.00% {animation-timing-function: cubic-bezier(0.67,0.66,0.34,0.33);transform: translate(0.00px,0.00px) rotate(0.00deg) scale(0.98, 0.98) ;}76.00% {animation-timing-function: cubic-bezier(0.66,0.68,0.33,0.35);transform: translate(0.00px,0.00px) rotate(0.00deg) scale(0.97, 0.97) ;}82.00% {animation-timing-function: cubic-bezier(0.65,0.71,0.32,0.38);transform: translate(0.00px,0.00px) rotate(0.00deg) scale(0.94, 0.94) ;}88.00% {animation-timing-function: cubic-bezier(0.65,0.73,0.31,0.40);transform: translate(0.00px,0.00px) rotate(0.00deg) scale(0.92, 0.92) ;}94.00% {animation-timing-function: cubic-bezier(0.63,0.80,0.28,0.48);transform: translate(0.00px,0.00px) rotate(0.00deg) scale(0.91, 0.91) ;}100.00% {animation-timing-function: cubic-bezier(0.63,0.80,0.28,0.48);transform: translate(0.00px,0.00px) rotate(0.00deg) scale(0.91, 0.91) ;} }</style><!-- [ldio] generated by https://loading.io --></svg>